# xmcd
#
# Track frame offsets:
#	150
#	20440
#	46185
#	65825
#	84950
#	102835
#	124285
#	139220
#	158305
#	183625
#	196575
#	242965
#	265390
#	275970
#
# Disc length: 3847 seconds
#
# Revision: 1
# Processed by: cddbd v1.5PL3 Copyright (c) Steve Scherf et al.
# Submitted via: audiograbber 1.82.01
#
DISCID=c70f050e
DTITLE=Jimmy Buffett - 1981-03-14 - "An Evening With" - Disc 1
DYEAR=1900
DGENRE=
TTITLE0=Jimmy Buffett - It's Too Late
TTITLE1=Jimmy Buffett - Manana
TTITLE2=Jimmy Buffett - Pencil Thin Mustache
TTITLE3=Jimmy Buffett - Son Of A Son Of A Sailor
TTITLE4=Jimmy Buffett - Volcano
TTITLE5=Jimmy Buffett - Come Monday
TTITLE6=Jimmy Buffett - Why Don't We Get Drunk
TTITLE7=Jimmy Buffett - Fins
TTITLE8=Jimmy Buffett - Margaritaville
TTITLE9=Jimmy Buffett - Dreamsicle
TTITLE10=Jimmy Buffett - God's Own Drunk
TTITLE11=Jimmy Buffett - Song For The Children
TTITLE12=Jimmy Buffett - Band Intros
TTITLE13=Jimmy Buffett - Cheeseburger In Paradise
EXTD=
EXTT0=
EXTT1=
EXTT2=
EXTT3=
EXTT4=
EXTT5=
EXTT6=
EXTT7=
EXTT8=
EXTT9=
EXTT10=
EXTT11=
EXTT12=
EXTT13=
PLAYORDER=
